<svg xmlns="http://www.w3.org/2000/svg" version="1.1" xmlns:xlink="http://www.w3.org/1999/xlink" xmlns:svgjs="http://svgjs.com/svgjs" width="33" height="33"><svg width="33" height="33" viewBox="0 0 33 33" fill="none" xmlns="http://www.w3.org/2000/svg">
<path fill-rule="evenodd" clip-rule="evenodd" d="M32.0022 5.63693L31.9678 5.7604L31.9677 5.76082C31.7286 6.61943 31.4899 7.4768 31.2588 8.33704C30.3583 11.723 29.4617 15.109 28.569 18.4949C28.5172 18.6934 28.4354 18.7572 28.2157 18.7572C20.0579 18.7514 11.8996 18.7495 3.74072 18.7516C3.6911 18.7516 3.64108 18.7486 3.57992 18.745C3.55254 18.7433 3.52293 18.7415 3.49013 18.7398C3.32306 18.1264 3.156 17.5114 2.99478 16.8949C2.01745 13.2139 1.04291 9.53237 0.0711519 5.85033C0.0106872 5.66333 -0.0103123 5.46697 0.00933887 5.27235C0.122943 4.61091 0.93237 4.32743 1.51292 4.74713C2.19213 5.2448 2.86542 5.75409 3.5385 6.26322L3.53866 6.26334C3.77608 6.44294 4.01348 6.62251 4.25111 6.80155L8.15457 9.74655C8.70923 10.1647 8.79109 10.4198 8.56638 11.0474C8.41041 11.464 8.42431 11.9204 8.6054 12.3279C8.78648 12.7353 9.12181 13.0648 9.54622 13.2522C9.96052 13.4357 10.4316 13.4705 10.8711 13.3502C11.3107 13.2299 11.6887 12.9627 11.9344 12.5986C12.1844 12.231 12.2816 11.7893 12.2073 11.3582C12.133 10.9272 11.8924 10.5372 11.5318 10.2631C10.983 9.83317 10.907 9.50087 11.2235 8.90242C12.5044 6.48133 13.7869 4.05944 15.071 1.63677C15.2665 1.2651 15.533 0.997373 15.9899 0.996584C16.4468 0.995798 16.7191 1.25959 16.9154 1.63205C18.1963 4.05577 19.4785 6.47739 20.7621 8.89691C21.0804 9.49772 21.0035 9.84183 20.4622 10.26C20.1002 10.5332 19.8584 10.9233 19.7835 11.3548C19.7087 11.7862 19.8062 12.2286 20.0571 12.5963C20.3014 12.9612 20.6784 13.2296 21.1175 13.3513C21.5567 13.4731 22.0278 13.4398 22.4428 13.2577C22.863 13.0743 23.197 12.7514 23.3808 12.3507C23.5646 11.95 23.5854 11.4995 23.4393 11.0852C23.2046 10.4001 23.2722 10.1836 23.857 9.73789C26.0037 8.11735 28.1508 6.49786 30.2981 4.87942C31.014 4.34003 31.5837 4.45814 32.0022 5.22589V5.63693ZM28.2431 27.0246V29.2869C28.2186 29.3805 28.1966 29.475 28.1746 29.5694C28.1284 29.7681 28.0822 29.9667 28.0125 30.1578C27.3702 31.9154 25.748 32.9926 23.7524 32.9965H8.15526C8.03497 32.9965 7.91552 32.9965 7.79523 32.9878C5.82638 32.8941 4.08055 31.4846 3.76814 29.6531C3.67326 29.0926 3.6729 28.5175 3.67254 27.9434C3.67241 27.7392 3.67228 27.535 3.6679 27.3317C3.65453 26.7018 4.00203 26.3868 4.66611 26.3868H16.6881C16.9772 26.3833 17.259 26.473 17.4866 26.6411C18.3281 27.2422 19.172 27.8396 20.0185 28.4333C20.0923 28.4876 20.1668 28.5378 20.2422 28.5886L20.2424 28.5887C20.2762 28.6115 20.3102 28.6343 20.3443 28.6577C20.698 28.4065 21.049 28.1576 21.3981 27.9099L21.3998 27.9087L21.4013 27.9077C22.004 27.4801 22.6012 27.0565 23.1977 26.6317C23.4257 26.4638 23.7079 26.3748 23.9971 26.3797L24.3198 26.3819H24.3199C25.2606 26.3886 26.2012 26.3952 27.1405 26.3797C27.6793 26.3655 28.051 26.5411 28.2431 27.0246ZM28.2432 20.8027H3.7507L3.75404 21.1098V23.2304C3.75488 24.0005 4.10237 24.3328 4.90846 24.3328H27.128C27.8748 24.3328 28.2432 23.9871 28.2432 23.2839V21.1035V20.8027Z" fill="#F59A1B"></path>
</svg><style>@media (prefers-color-scheme: light) { :root { filter: none; } }
</style></svg>