<svg width="266" height="37" viewBox="0 0 266 37" fill="none" xmlns="http://www.w3.org/2000/svg">
<path d="M49.9117 10.3425V14.1649H41.1202V19.1634H47.8535V22.8388H41.1202V27.9403H49.9117V31.7627H36.1216V10.3425H49.9117ZM63.6997 21.9714C63.8957 22.3439 64.082 22.731 64.2584 23.1329C64.4446 23.5347 64.621 23.9464 64.7876 24.3678C64.9543 23.9366 65.1307 23.52 65.3169 23.1182C65.5031 22.7065 65.6942 22.3096 65.8903 21.9273L71.3886 11.107C71.4867 10.9207 71.5847 10.7786 71.6827 10.6806C71.7905 10.5728 71.9081 10.4944 72.0355 10.4454C72.1629 10.3964 72.305 10.367 72.4619 10.3572C72.6285 10.3474 72.8196 10.3425 73.0352 10.3425H76.8282V31.7627H72.4472V19.4428C72.4472 18.8449 72.4766 18.198 72.5354 17.5022L66.8606 28.5136C66.6841 28.8567 66.444 29.1164 66.1402 29.2928C65.8461 29.4692 65.508 29.5575 65.1258 29.5575H64.4495C64.0673 29.5575 63.7242 29.4692 63.4204 29.2928C63.1264 29.1164 62.8911 28.8567 62.7147 28.5136L57.0105 17.4875C57.0497 17.8305 57.0791 18.1735 57.0987 18.5166C57.1183 18.8498 57.1281 19.1585 57.1281 19.4428V31.7627H52.747V10.3425H56.54C56.7557 10.3425 56.9419 10.3474 57.0987 10.3572C57.2653 10.367 57.4123 10.3964 57.5398 10.4454C57.6672 10.4944 57.7799 10.5728 57.8779 10.6806C57.9857 10.7786 58.0886 10.9207 58.1866 11.107L63.6997 21.9714ZM85.3391 24.603V31.7627H80.3699V10.3425H87.9265C89.4359 10.3425 90.7297 10.5238 91.8078 10.8864C92.8957 11.2393 93.7876 11.7293 94.4835 12.3566C95.1891 12.9839 95.7086 13.7239 96.0418 14.5765C96.3751 15.4292 96.5417 16.3505 96.5417 17.3404C96.5417 18.4088 96.3702 19.3889 96.0271 20.2808C95.6841 21.1727 95.1597 21.9371 94.4541 22.5742C93.7484 23.2113 92.8516 23.7111 91.7637 24.0738C90.6855 24.4266 89.4065 24.603 87.9265 24.603H85.3391ZM85.3391 20.8541H87.9265C89.2203 20.8541 90.1514 20.5454 90.7198 19.9279C91.2883 19.3105 91.5725 18.448 91.5725 17.3404C91.5725 16.8504 91.499 16.4044 91.352 16.0026C91.205 15.6008 90.9796 15.2577 90.6757 14.9735C90.3817 14.6795 90.0044 14.454 89.5437 14.2972C89.0929 14.1404 88.5538 14.062 87.9265 14.062H85.3391V20.8541ZM104.56 31.7627H99.5612V10.3425H104.56V31.7627ZM113.508 23.8385V31.7627H108.538V10.3425H115.507C117.056 10.3425 118.374 10.5042 119.462 10.8276C120.559 11.1413 121.451 11.5823 122.137 12.1508C122.833 12.7192 123.338 13.3906 123.652 14.1649C123.965 14.9392 124.122 15.7821 124.122 16.6936C124.122 17.3894 124.029 18.0461 123.843 18.6636C123.657 19.281 123.377 19.8544 123.005 20.3837C122.642 20.9031 122.191 21.3687 121.652 21.7803C121.123 22.192 120.51 22.5301 119.815 22.7947C120.148 22.9613 120.456 23.1672 120.741 23.4122C121.035 23.6572 121.29 23.9562 121.505 24.309L126.063 31.7627H121.564C120.731 31.7627 120.133 31.4491 119.77 30.8218L116.213 24.603C116.056 24.3286 115.87 24.1326 115.654 24.015C115.448 23.8973 115.154 23.8385 114.772 23.8385H113.508ZM113.508 20.4131H115.507C116.183 20.4131 116.757 20.3298 117.227 20.1631C117.707 19.9867 118.099 19.7466 118.403 19.4428C118.707 19.1389 118.928 18.7861 119.065 18.3843C119.202 17.9726 119.271 17.5316 119.271 17.0611C119.271 16.1202 118.962 15.3851 118.344 14.8559C117.737 14.3266 116.791 14.062 115.507 14.062H113.508V20.4131ZM141.883 10.3425V14.1649H133.091V19.1634H139.825V22.8388H133.091V27.9403H141.883V31.7627H128.093V10.3425H141.883ZM151.197 31.7627V10.6953H157.916C159.21 10.6953 160.322 10.8227 161.253 11.0776C162.194 11.3324 162.964 11.695 163.561 12.1655C164.169 12.6359 164.615 13.2142 164.899 13.9003C165.193 14.5765 165.34 15.341 165.34 16.1937C165.34 16.7132 165.257 17.213 165.09 17.6933C164.934 18.1735 164.688 18.6195 164.355 19.0311C164.032 19.4428 163.62 19.8103 163.12 20.1337C162.63 20.4572 162.052 20.7218 161.386 20.9276C162.924 21.2315 164.086 21.7852 164.87 22.5889C165.654 23.3926 166.046 24.4511 166.046 25.7644C166.046 26.6563 165.879 27.4698 165.546 28.2049C165.223 28.94 164.742 29.5722 164.105 30.1014C163.478 30.6307 162.704 31.0423 161.782 31.3363C160.871 31.6206 159.827 31.7627 158.651 31.7627H151.197ZM154.049 22.1626V29.4987H158.607C159.42 29.4987 160.116 29.4055 160.695 29.2193C161.283 29.0331 161.763 28.7734 162.135 28.4401C162.518 28.0971 162.797 27.6953 162.973 27.2346C163.15 26.7642 163.238 26.2496 163.238 25.6909C163.238 24.603 162.851 23.7454 162.077 23.1182C161.312 22.4811 160.151 22.1626 158.592 22.1626H154.049ZM154.049 20.1337H157.813C158.617 20.1337 159.313 20.0455 159.901 19.8691C160.489 19.6927 160.974 19.4477 161.356 19.134C161.748 18.8204 162.037 18.4431 162.224 18.002C162.41 17.5512 162.503 17.0611 162.503 16.5319C162.503 15.2969 162.13 14.3903 161.386 13.8121C160.641 13.2338 159.484 12.9447 157.916 12.9447H154.049V20.1337ZM178.424 29.4987C179.296 29.4987 180.075 29.3516 180.761 29.0576C181.447 28.7636 182.025 28.3519 182.496 27.8227C182.976 27.2934 183.339 26.6612 183.584 25.9262C183.839 25.1911 183.966 24.3825 183.966 23.5004V10.6953H186.803V23.5004C186.803 24.7157 186.607 25.8429 186.215 26.8818C185.833 27.9207 185.279 28.8224 184.554 29.5869C183.839 30.3415 182.961 30.9345 181.923 31.3658C180.884 31.797 179.717 32.0126 178.424 32.0126C177.13 32.0126 175.963 31.797 174.925 31.3658C173.886 30.9345 173.004 30.3415 172.278 29.5869C171.553 28.8224 170.994 27.9207 170.602 26.8818C170.22 25.8429 170.029 24.7157 170.029 23.5004V10.6953H172.866V23.4857C172.866 24.3678 172.989 25.1764 173.234 25.9115C173.489 26.6465 173.851 27.2787 174.322 27.808C174.802 28.3372 175.385 28.7538 176.071 29.0576C176.767 29.3516 177.551 29.4987 178.424 29.4987ZM194.844 22.9711V31.7627H192.007V10.6953H197.961C199.294 10.6953 200.446 10.8325 201.416 11.107C202.386 11.3716 203.185 11.7587 203.812 12.2684C204.449 12.778 204.92 13.3955 205.224 14.1208C205.527 14.8363 205.679 15.64 205.679 16.5319C205.679 17.2767 205.562 17.9726 205.326 18.6195C205.091 19.2663 204.748 19.8495 204.297 20.369C203.856 20.8786 203.312 21.3148 202.666 21.6774C202.028 22.04 201.303 22.3145 200.49 22.5007C200.843 22.7065 201.156 23.0055 201.431 23.3975L207.576 31.7627H205.047C204.528 31.7627 204.145 31.5618 203.9 31.1599L198.431 23.6327C198.265 23.3975 198.084 23.2309 197.887 23.1329C197.691 23.0251 197.397 22.9711 197.005 22.9711H194.844ZM194.844 20.8982H197.829C198.662 20.8982 199.392 20.8002 200.019 20.6042C200.656 20.3984 201.186 20.1141 201.607 19.7515C202.038 19.3791 202.362 18.938 202.577 18.4284C202.793 17.9187 202.901 17.3551 202.901 16.7377C202.901 15.4831 202.484 14.5373 201.651 13.9003C200.828 13.2632 199.598 12.9447 197.961 12.9447H194.844V20.8982ZM219.341 29.6898C219.909 29.6898 220.428 29.6653 220.899 29.6163C221.379 29.5575 221.83 29.4741 222.251 29.3663C222.673 29.2585 223.07 29.1311 223.442 28.9841C223.815 28.8273 224.187 28.6509 224.56 28.4548V23.8091H221.296C221.11 23.8091 220.958 23.7552 220.84 23.6474C220.732 23.5396 220.678 23.4073 220.678 23.2505V21.6333H227.147V29.7192C226.618 30.1014 226.064 30.4347 225.486 30.7189C224.917 31.0031 224.305 31.2432 223.648 31.4393C223.001 31.6255 222.305 31.7627 221.56 31.8509C220.816 31.9489 220.007 31.9979 219.135 31.9979C217.606 31.9979 216.204 31.7382 214.93 31.2187C213.656 30.6895 212.558 29.9544 211.637 29.0135C210.716 28.0628 209.995 26.9259 209.476 25.6027C208.966 24.2796 208.711 22.8241 208.711 21.2364C208.711 19.629 208.961 18.1637 209.461 16.8406C209.971 15.5174 210.691 14.3854 211.622 13.4445C212.563 12.4938 213.695 11.7587 215.018 11.2393C216.351 10.7198 217.841 10.4601 219.488 10.4601C220.321 10.4601 221.095 10.5238 221.81 10.6512C222.526 10.7688 223.187 10.9453 223.795 11.1805C224.413 11.4059 224.981 11.6852 225.501 12.0185C226.02 12.3419 226.505 12.7094 226.956 13.1211L226.147 14.4148C225.981 14.6795 225.765 14.8118 225.501 14.8118C225.344 14.8118 225.172 14.7579 224.986 14.6501C224.741 14.5128 224.467 14.3462 224.163 14.1502C223.859 13.9542 223.486 13.768 223.045 13.5915C222.614 13.4053 222.1 13.2485 221.502 13.1211C220.914 12.9937 220.213 12.93 219.399 12.93C218.213 12.93 217.14 13.126 216.18 13.518C215.219 13.9003 214.401 14.454 213.725 15.1793C213.048 15.8948 212.529 16.7671 212.166 17.7962C211.804 18.8155 211.622 19.9622 211.622 21.2364C211.622 22.5693 211.808 23.7601 212.181 24.8088C212.563 25.8478 213.097 26.7299 213.783 27.4551C214.469 28.1804 215.283 28.7342 216.224 29.1164C217.165 29.4987 218.204 29.6898 219.341 29.6898ZM244.521 10.6953V13.0182H234.406V20.0161H242.595V22.2508H234.406V29.4398H244.521V31.7627H231.539V10.6953H244.521ZM251.755 22.9711V31.7627H248.918V10.6953H254.872C256.205 10.6953 257.357 10.8325 258.327 11.107C259.297 11.3716 260.096 11.7587 260.723 12.2684C261.361 12.778 261.831 13.3955 262.135 14.1208C262.439 14.8363 262.591 15.64 262.591 16.5319C262.591 17.2767 262.473 17.9726 262.238 18.6195C262.002 19.2663 261.659 19.8495 261.209 20.369C260.768 20.8786 260.224 21.3148 259.577 21.6774C258.94 22.04 258.214 22.3145 257.401 22.5007C257.754 22.7065 258.067 23.0055 258.342 23.3975L264.487 31.7627H261.958C261.439 31.7627 261.057 31.5618 260.812 31.1599L255.343 23.6327C255.176 23.3975 254.995 23.2309 254.799 23.1329C254.603 23.0251 254.309 22.9711 253.917 22.9711H251.755ZM251.755 20.8982H254.74C255.573 20.8982 256.303 20.8002 256.93 20.6042C257.568 20.3984 258.097 20.1141 258.518 19.7515C258.949 19.3791 259.273 18.938 259.489 18.4284C259.704 17.9187 259.812 17.3551 259.812 16.7377C259.812 15.4831 259.395 14.5373 258.562 13.9003C257.739 13.2632 256.509 12.9447 254.872 12.9447H251.755V20.8982Z" fill="#F59A1B"/>
<g clip-path="url(#clip0_1050_1385)">
<path d="M26.69 25.5604V27.7737C26.6199 28.058 26.5721 28.35 26.4773 28.6258C25.8849 30.3453 24.3888 31.3992 22.5484 31.403C17.7535 31.403 12.9586 31.403 8.16375 31.403C8.05282 31.403 7.94265 31.403 7.83172 31.3946C6.01592 31.3029 4.40582 29.9239 4.11769 28.132C3.99905 27.3885 4.04065 26.6189 4.02524 25.8609C4.01292 25.2446 4.3334 24.9364 4.94586 24.9364C8.6437 24.9364 12.3395 24.9364 16.0332 24.9364C16.2999 24.933 16.5598 25.0208 16.7697 25.1852C17.5458 25.7733 18.3241 26.3578 19.1048 26.9386C19.2034 27.0157 19.3035 27.0842 19.4052 27.1582C20.2958 26.4872 21.1671 25.8331 22.0368 25.176C22.2471 25.0117 22.5073 24.9247 22.7741 24.9295C23.7409 24.9364 24.7078 24.9464 25.6731 24.9295C26.17 24.9156 26.5128 25.0874 26.69 25.5604Z" fill="#F43127"/>
<path d="M30.1569 5.11019C29.9257 5.99074 29.6946 6.86975 29.4712 7.75184C28.6407 11.0645 27.8139 14.3771 26.9906 17.6898C26.9428 17.8839 26.8673 17.9463 26.6647 17.9463C19.1411 17.9407 11.617 17.9389 4.09243 17.9409C4.02617 17.9409 3.95915 17.9348 3.86131 17.9294C3.70723 17.3293 3.55316 16.7276 3.40447 16.1244C2.50312 12.5231 1.60434 8.92128 0.708125 5.31897C0.652361 5.13601 0.632994 4.9439 0.651118 4.7535C0.75589 4.10638 1.50239 3.82904 2.03781 4.23966C2.88523 4.89834 3.72264 5.57781 4.56313 6.24959L8.16314 9.13083C8.67468 9.5399 8.75017 9.78951 8.54294 10.4035C8.39909 10.8111 8.41191 11.2576 8.57892 11.6563C8.74593 12.0549 9.05519 12.3772 9.4466 12.5606C9.82869 12.7401 10.2631 12.7742 10.6685 12.6565C11.0739 12.5388 11.4226 12.2774 11.6491 11.9212C11.8797 11.5615 11.9693 11.1293 11.9008 10.7076C11.8323 10.2859 11.6104 9.90435 11.2778 9.6362C10.7717 9.21557 10.7016 8.89047 10.9935 8.30498C12.1748 5.9363 13.3576 3.56685 14.5419 1.19664C14.7222 0.833016 14.9679 0.571085 15.3893 0.570314C15.8108 0.569544 16.0619 0.827623 16.2429 1.19202C17.4242 3.56326 18.6067 5.93245 19.7906 8.29958C20.0841 8.88739 20.0132 9.22405 19.514 9.63312C19.1801 9.90046 18.9571 10.2821 18.8881 10.7042C18.8191 11.1264 18.9089 11.5591 19.1404 11.9189C19.3657 12.2758 19.7134 12.5385 20.1184 12.6576C20.5233 12.7767 20.9579 12.7441 21.3406 12.566C21.7282 12.3865 22.0361 12.0706 22.2057 11.6786C22.3752 11.2865 22.3944 10.8458 22.2596 10.4405C22.0432 9.77025 22.1056 9.55839 22.6448 9.12235C24.6247 7.5369 26.6049 5.95248 28.5853 4.36908C29.2455 3.84137 29.7709 3.95692 30.1569 4.70805V5.11019Z" fill="#F43127"/>
<path d="M4.10156 19.6963H26.69V19.9906C26.69 20.7016 26.69 21.4127 26.69 22.1238C26.69 22.8117 26.3503 23.1499 25.6616 23.1499H5.16932C4.4259 23.1499 4.10542 22.8248 4.10465 22.0714C4.10465 21.3796 4.10465 20.688 4.10465 19.9967L4.10156 19.6963Z" fill="#F43127"/>
</g>
<defs>
<clipPath id="clip0_1050_1385">
<rect width="29.5142" height="30.8316" fill="white" transform="translate(0.642578 0.573242)"/>
</clipPath>
</defs>
</svg>
