<svg width="265" height="36" viewBox="0 0 265 36" fill="none" xmlns="http://www.w3.org/2000/svg">
<path d="M49.2321 9.12602V12.9456H40.4471V17.9404H47.1755V21.6131H40.4471V26.7107H49.2321V30.5303H35.4523V9.12602H49.2321ZM63.0099 20.7463C63.2058 21.1185 63.3918 21.5053 63.5681 21.9069C63.7542 22.3084 63.9305 22.7198 64.097 23.1409C64.2635 22.71 64.4398 22.2937 64.6259 21.8922C64.8119 21.4808 65.0029 21.0842 65.1988 20.7022L70.6931 9.88993C70.791 9.70385 70.889 9.56184 70.9869 9.46391C71.0946 9.35618 71.2122 9.27783 71.3395 9.22886C71.4668 9.17989 71.6088 9.15051 71.7655 9.14071C71.932 9.13092 72.123 9.12602 72.3384 9.12602H76.1286V30.5303H71.7508V18.2195C71.7508 17.6221 71.7802 16.9757 71.839 16.2804L66.1684 27.2836C65.9921 27.6264 65.7521 27.886 65.4485 28.0622C65.1547 28.2385 64.8168 28.3267 64.4349 28.3267H63.7591C63.3772 28.3267 63.0344 28.2385 62.7308 28.0622C62.437 27.886 62.2019 27.6264 62.0256 27.2836L56.3257 16.2657C56.3648 16.6085 56.3942 16.9512 56.4138 17.294C56.4334 17.627 56.4432 17.9355 56.4432 18.2195V30.5303H52.0654V9.12602H55.8556C56.071 9.12602 56.2571 9.13092 56.4138 9.14071C56.5803 9.15051 56.7272 9.17989 56.8545 9.22886C56.9818 9.27783 57.0945 9.35618 57.1924 9.46391C57.3001 9.56184 57.403 9.70385 57.5009 9.88993L63.0099 20.7463ZM84.6331 23.3759V30.5303H79.6677V9.12602H87.2187C88.7269 9.12602 90.0197 9.30721 91.097 9.66958C92.1841 10.0222 93.0753 10.5118 93.7707 11.1386C94.4758 11.7654 94.9949 12.5049 95.3279 13.3569C95.6609 14.209 95.8274 15.1296 95.8274 16.1188C95.8274 17.1863 95.656 18.1657 95.3132 19.0569C94.9704 19.9481 94.4465 20.712 93.7413 21.3486C93.0362 21.9852 92.14 22.4847 91.0529 22.8471C89.9756 23.1996 88.6975 23.3759 87.2187 23.3759H84.6331ZM84.6331 19.6298H87.2187C88.5114 19.6298 89.4419 19.3213 90.0099 18.7043C90.5779 18.0873 90.8619 17.2255 90.8619 16.1188C90.8619 15.6291 90.7885 15.1835 90.6416 14.7819C90.4947 14.3804 90.2694 14.0376 89.9658 13.7536C89.672 13.4598 89.2949 13.2345 88.8346 13.0778C88.3841 12.9211 87.8455 12.8428 87.2187 12.8428H84.6331V19.6298ZM103.84 30.5303H98.8447V9.12602H103.84V30.5303ZM112.781 22.612V30.5303H107.815V9.12602H114.779C116.326 9.12602 117.643 9.28762 118.73 9.61081C119.827 9.92421 120.718 10.3649 121.404 10.933C122.099 11.501 122.604 12.1719 122.917 12.9456C123.231 13.7193 123.387 14.5616 123.387 15.4724C123.387 16.1677 123.294 16.8239 123.108 17.4409C122.922 18.0579 122.643 18.6309 122.271 19.1597C121.908 19.6788 121.458 20.144 120.919 20.5553C120.39 20.9667 119.778 21.3046 119.083 21.569C119.416 21.7355 119.724 21.9412 120.008 22.186C120.302 22.4308 120.557 22.7295 120.772 23.0821L125.326 30.5303H120.831C119.999 30.5303 119.401 30.2169 119.039 29.5901L115.484 23.3759C115.327 23.1017 115.141 22.9058 114.925 22.7883C114.72 22.6708 114.426 22.612 114.044 22.612H112.781ZM112.781 19.1891H114.779C115.454 19.1891 116.027 19.1059 116.497 18.9394C116.977 18.7631 117.369 18.5231 117.673 18.2195C117.976 17.9159 118.197 17.5633 118.334 17.1618C118.471 16.7505 118.539 16.3097 118.539 15.8396C118.539 14.8994 118.231 14.1649 117.614 13.636C117.007 13.1072 116.062 12.8428 114.779 12.8428H112.781V19.1891ZM141.135 9.12602V12.9456H132.35V17.9404H139.078V21.6131H132.35V26.7107H141.135V30.5303H127.355V9.12602H141.135ZM150.442 30.5303V9.4786H157.156C158.449 9.4786 159.56 9.60592 160.491 9.86055C161.431 10.1152 162.2 10.4776 162.797 10.9477C163.404 11.4178 163.85 11.9956 164.134 12.6812C164.428 13.3569 164.575 14.1208 164.575 14.9729C164.575 15.492 164.491 15.9914 164.325 16.4713C164.168 16.9512 163.923 17.3968 163.59 17.8082C163.267 18.2195 162.856 18.5868 162.356 18.91C161.867 19.2332 161.289 19.4976 160.623 19.7033C162.161 20.0069 163.321 20.5602 164.105 21.3633C164.888 22.1664 165.28 23.2241 165.28 24.5365C165.28 25.4277 165.113 26.2406 164.78 26.9751C164.457 27.7097 163.977 28.3414 163.341 28.8702C162.714 29.3991 161.94 29.8104 161.02 30.1042C160.109 30.3883 159.066 30.5303 157.89 30.5303H150.442ZM153.292 20.9373V28.2679H157.846C158.659 28.2679 159.355 28.1749 159.932 27.9888C160.52 27.8027 161 27.5432 161.372 27.2102C161.754 26.8674 162.033 26.4659 162.21 26.0056C162.386 25.5355 162.474 25.0213 162.474 24.463C162.474 23.3759 162.087 22.519 161.313 21.8922C160.549 21.2556 159.389 20.9373 157.832 20.9373H153.292ZM153.292 18.91H157.053C157.856 18.91 158.552 18.8218 159.139 18.6456C159.727 18.4693 160.212 18.2244 160.594 17.911C160.985 17.5976 161.274 17.2206 161.46 16.7798C161.646 16.3293 161.739 15.8396 161.739 15.3108C161.739 14.0768 161.367 13.1708 160.623 12.593C159.879 12.0152 158.723 11.7263 157.156 11.7263H153.292V18.91ZM177.648 28.2679C178.52 28.2679 179.298 28.121 179.984 27.8272C180.67 27.5334 181.247 27.122 181.718 26.5932C182.197 26.0643 182.56 25.4326 182.805 24.6981C183.059 23.9636 183.187 23.1556 183.187 22.2741V9.4786H186.022V22.2741C186.022 23.4886 185.826 24.6148 185.434 25.653C185.052 26.6911 184.499 27.5921 183.774 28.3561C183.059 29.1102 182.183 29.7027 181.145 30.1336C180.106 30.5646 178.941 30.78 177.648 30.78C176.355 30.78 175.19 30.5646 174.152 30.1336C173.114 29.7027 172.232 29.1102 171.508 28.3561C170.783 27.5921 170.225 26.6911 169.833 25.653C169.451 24.6148 169.26 23.4886 169.26 22.2741V9.4786H172.095V22.2594C172.095 23.1409 172.218 23.9489 172.462 24.6834C172.717 25.4179 173.079 26.0496 173.55 26.5785C174.029 27.1074 174.612 27.5236 175.298 27.8272C175.993 28.121 176.777 28.2679 177.648 28.2679ZM194.057 21.7453V30.5303H191.221V9.4786H197.171C198.503 9.4786 199.654 9.61571 200.623 9.88993C201.593 10.1544 202.391 10.5412 203.018 11.0505C203.655 11.5598 204.125 12.1768 204.428 12.9015C204.732 13.6165 204.884 14.4195 204.884 15.3108C204.884 16.0551 204.766 16.7505 204.531 17.3968C204.296 18.0432 203.953 18.626 203.503 19.145C203.062 19.6543 202.519 20.0901 201.872 20.4525C201.236 20.8149 200.511 21.0891 199.698 21.2752C200.051 21.4808 200.364 21.7796 200.638 22.1713L206.779 30.5303H204.252C203.733 30.5303 203.351 30.3295 203.106 29.928L197.641 22.4064C197.475 22.1713 197.294 22.0048 197.098 21.9069C196.902 21.7991 196.608 21.7453 196.216 21.7453H194.057ZM194.057 19.6739H197.039C197.871 19.6739 198.601 19.576 199.228 19.3801C199.864 19.1744 200.393 18.8904 200.814 18.528C201.245 18.1559 201.569 17.7151 201.784 17.2059C201.999 16.6966 202.107 16.1335 202.107 15.5164C202.107 14.2628 201.691 13.3177 200.859 12.6812C200.036 12.0446 198.807 11.7263 197.171 11.7263H194.057V19.6739ZM218.535 28.4589C219.103 28.4589 219.622 28.4344 220.092 28.3854C220.572 28.3267 221.022 28.2434 221.444 28.1357C221.865 28.028 222.261 27.9007 222.633 27.7537C223.006 27.597 223.378 27.4208 223.75 27.2249V22.5826H220.489C220.303 22.5826 220.151 22.5288 220.033 22.421C219.926 22.3133 219.872 22.1811 219.872 22.0244V20.4084H226.336V28.4883C225.807 28.8702 225.253 29.2032 224.675 29.4872C224.107 29.7713 223.495 30.0112 222.839 30.2071C222.193 30.3932 221.497 30.5303 220.753 30.6184C220.009 30.7164 219.201 30.7653 218.329 30.7653C216.801 30.7653 215.401 30.5058 214.128 29.9867C212.854 29.4579 211.758 28.7233 210.837 27.7831C209.916 26.8331 209.196 25.6971 208.677 24.3749C208.168 23.0527 207.913 21.5984 207.913 20.0118C207.913 18.4056 208.163 16.9414 208.663 15.6193C209.172 14.2971 209.892 13.1659 210.822 12.2257C211.762 11.2758 212.894 10.5412 214.216 10.0222C215.548 9.50308 217.036 9.24355 218.682 9.24355C219.514 9.24355 220.288 9.30721 221.003 9.43452C221.718 9.55205 222.379 9.72834 222.986 9.96339C223.603 10.1886 224.171 10.4678 224.69 10.8008C225.209 11.1239 225.694 11.4912 226.145 11.9026L225.337 13.1953C225.17 13.4598 224.955 13.592 224.69 13.592C224.533 13.592 224.362 13.5381 224.176 13.4304C223.931 13.2933 223.657 13.1268 223.353 12.9309C223.05 12.735 222.678 12.5489 222.237 12.3727C221.806 12.1866 221.292 12.0299 220.694 11.9026C220.107 11.7752 219.406 11.7116 218.594 11.7116C217.409 11.7116 216.336 11.9074 215.376 12.2992C214.417 12.6812 213.599 13.2345 212.923 13.9592C212.247 14.6742 211.728 15.5458 211.366 16.5742C211.003 17.5927 210.822 18.7386 210.822 20.0118C210.822 21.3437 211.008 22.5337 211.38 23.5816C211.762 24.6197 212.296 25.5012 212.982 26.2259C213.667 26.9507 214.48 27.504 215.42 27.886C216.361 28.2679 217.399 28.4589 218.535 28.4589ZM243.696 9.4786V11.7997H233.589V18.7925H241.772V21.0254H233.589V28.2092H243.696V30.5303H230.724V9.4786H243.696ZM250.926 21.7453V30.5303H248.09V9.4786H254.04C255.372 9.4786 256.523 9.61571 257.492 9.88993C258.462 10.1544 259.26 10.5412 259.887 11.0505C260.523 11.5598 260.994 12.1768 261.297 12.9015C261.601 13.6165 261.753 14.4195 261.753 15.3108C261.753 16.0551 261.635 16.7505 261.4 17.3968C261.165 18.0432 260.822 18.626 260.372 19.145C259.931 19.6543 259.387 20.0901 258.741 20.4525C258.104 20.8149 257.38 21.0891 256.567 21.2752C256.919 21.4808 257.233 21.7796 257.507 22.1713L263.648 30.5303H261.121C260.602 30.5303 260.22 30.3295 259.975 29.928L254.51 22.4064C254.344 22.1713 254.162 22.0048 253.967 21.9069C253.771 21.7991 253.477 21.7453 253.085 21.7453H250.926ZM250.926 19.6739H253.908C254.74 19.6739 255.47 19.576 256.097 19.3801C256.733 19.1744 257.262 18.8904 257.683 18.528C258.114 18.1559 258.437 17.7151 258.653 17.2059C258.868 16.6966 258.976 16.1335 258.976 15.5164C258.976 14.2628 258.56 13.3177 257.727 12.6812C256.905 12.0446 255.676 11.7263 254.04 11.7263H250.926V19.6739Z" fill="#1D0605" fill-opacity="0.9"/>
<g clip-path="url(#clip0_1050_1478)">
<path d="M26.0281 25.3119V27.5236C25.958 27.8076 25.9103 28.0994 25.8156 28.375C25.2236 30.0932 23.7286 31.1463 21.8896 31.1502C17.0983 31.1502 12.307 31.1502 7.51565 31.1502C7.4048 31.1502 7.29472 31.1502 7.18386 31.1417C5.36942 31.0501 3.76051 29.6721 3.4726 27.8815C3.35405 27.1387 3.39562 26.3696 3.38023 25.6121C3.36791 24.9963 3.68815 24.6884 4.30015 24.6884C7.99524 24.6884 11.6883 24.6884 15.3793 24.6884C15.6457 24.685 15.9054 24.7727 16.1152 24.937C16.8907 25.5246 17.6684 26.1087 18.4485 26.6891C18.547 26.7661 18.6471 26.8346 18.7487 26.9085C19.6386 26.238 20.5093 25.5844 21.3784 24.9278C21.5885 24.7636 21.8486 24.6766 22.1151 24.6814C23.0812 24.6884 24.0473 24.6984 25.0119 24.6814C25.5084 24.6676 25.851 24.8392 26.0281 25.3119Z" fill="#1D0605" fill-opacity="0.9"/>
<path d="M29.4923 4.87634C29.2614 5.75623 29.0304 6.63459 28.8072 7.51602C27.9773 10.8262 27.151 14.1364 26.3284 17.4466C26.2806 17.6406 26.2052 17.7029 26.0027 17.7029C18.4848 17.6973 10.9663 17.6955 3.44728 17.6975C3.38107 17.6975 3.3141 17.6914 3.21634 17.686C3.06237 17.0863 2.90841 16.4851 2.75984 15.8823C1.85916 12.2837 0.961047 8.6846 0.0654999 5.08496C0.00977727 4.90214 -0.00957539 4.71018 0.00853463 4.51992C0.113229 3.87328 0.859176 3.59615 1.39419 4.00645C2.24099 4.66464 3.07777 5.34361 3.91764 6.01489L7.51496 8.89398C8.02612 9.30275 8.10156 9.55217 7.89448 10.1657C7.75073 10.573 7.76355 11.0192 7.93043 11.4175C8.09731 11.8159 8.40635 12.138 8.79746 12.3212C9.17927 12.5005 9.61336 12.5346 10.0185 12.417C10.4236 12.2994 10.772 12.0382 10.9984 11.6822C11.2288 11.3228 11.3183 10.891 11.2499 10.4696C11.1814 10.0482 10.9597 9.66693 10.6273 9.39898C10.1215 8.97866 10.0515 8.6538 10.3432 8.06875C11.5236 5.70183 12.7055 3.33415 13.889 0.965702C14.0691 0.602351 14.3147 0.340615 14.7358 0.339845C15.1569 0.339076 15.4078 0.596963 15.5887 0.961083C16.7691 3.33056 17.9508 5.69798 19.1337 8.06336C19.427 8.65072 19.3562 8.98713 18.8574 9.3959C18.5237 9.66304 18.3009 10.0444 18.2319 10.4662C18.163 10.888 18.2528 11.3204 18.484 11.6799C18.7091 12.0366 19.0566 12.2991 19.4613 12.4181C19.866 12.5371 20.3002 12.5046 20.6826 12.3266C21.0699 12.1473 21.3776 11.8316 21.547 11.4398C21.7164 11.0481 21.7356 10.6077 21.601 10.2027C21.3846 9.53293 21.447 9.32123 21.9859 8.88552C23.9643 7.30124 25.9429 5.718 27.9219 4.13578C28.5816 3.60846 29.1066 3.72393 29.4923 4.4745V4.87634Z" fill="#1D0605" fill-opacity="0.9"/>
<path d="M3.45654 19.4521H26.0282V19.7462C26.0282 20.4568 26.0282 21.1673 26.0282 21.8778C26.0282 22.5653 25.6887 22.9032 25.0005 22.9032H4.5235C3.78064 22.9032 3.4604 22.5784 3.45963 21.8255C3.45963 21.1342 3.45963 20.4432 3.45963 19.7524L3.45654 19.4521Z" fill="#1D0605" fill-opacity="0.9"/>
</g>
<defs>
<clipPath id="clip0_1050_1478">
<rect width="29.4922" height="30.8086" fill="white" transform="translate(0 0.343262)"/>
</clipPath>
</defs>
</svg>
