<svg width="16" height="16" viewBox="0 0 16 16" fill="none" xmlns="http://www.w3.org/2000/svg">
<path d="M8 9.89928L2.30216 15.5971C2.03357 15.8657 1.71703 16 1.35252 16C0.988009 16 0.671463 15.8657 0.402878 15.5971C0.134292 15.3285 0 15.012 0 14.6475C0 14.283 0.134292 13.9664 0.402878 13.6978L6.10072 8L0.402878 2.30216C0.134292 2.03357 0 1.71703 0 1.35252C0 0.988009 0.134292 0.671463 0.402878 0.402878C0.671463 0.134292 0.988009 0 1.35252 0C1.71703 0 2.03357 0.134292 2.30216 0.402878L8 6.10072L13.6978 0.402878C13.9664 0.134292 14.283 0 14.6475 0C15.012 0 15.3285 0.134292 15.5971 0.402878C15.8657 0.671463 16 0.988009 16 1.35252C16 1.71703 15.8657 2.03357 15.5971 2.30216L9.89928 8L15.5971 13.6978C15.8657 13.9664 16 14.283 16 14.6475C16 15.012 15.8657 15.3285 15.5971 15.5971C15.3285 15.8657 15.012 16 14.6475 16C14.283 16 13.9664 15.8657 13.6978 15.5971L8 9.89928Z" fill="black"/>
</svg>
