<svg width="16" height="17" viewBox="0 0 16 17" fill="none" xmlns="http://www.w3.org/2000/svg">
<path d="M0.571429 3.87579H15.4286C15.7442 3.87579 16 3.58342 16 3.22273V1.59007C16 1.22938 15.7442 0.937012 15.4286 0.937012H0.571429C0.255821 0.937012 0 1.22938 0 1.59007V3.22273C0 3.58342 0.255821 3.87579 0.571429 3.87579ZM0.571429 10.4064H15.4286C15.7442 10.4064 16 10.114 16 9.75334V8.12069C16 7.75999 15.7442 7.46762 15.4286 7.46762H0.571429C0.255821 7.46762 0 7.75999 0 8.12069V9.75334C0 10.114 0.255821 10.4064 0.571429 10.4064ZM0.571429 16.937H15.4286C15.7442 16.937 16 16.6446 16 16.2839V14.6513C16 14.2906 15.7442 13.9982 15.4286 13.9982H0.571429C0.255821 13.9982 0 14.2906 0 14.6513V16.2839C0 16.6446 0.255821 16.937 0.571429 16.937Z" fill="#1D0605" fill-opacity="0.9"/>
</svg>
